<svg width="26" height="26" viewBox="0 0 26 26" fill="none" xmlns="http://www.w3.org/2000/svg">
<path d="M6.45796 17.9143L6.45791 17.9143C4.78407 16.24 3.75 13.9286 3.75 11.375C3.75 6.26622 7.89122 2.125 13 2.125C18.1088 2.125 22.25 6.26622 22.25 11.375C22.25 13.9286 21.2159 16.24 19.5421 17.9143L19.542 17.9143C19.1212 18.3354 18.5507 18.81 17.9042 19.3437C17.875 19.3678 17.8458 19.3919 17.8164 19.4162C17.2013 19.9238 16.5311 20.4768 15.9036 21.0579C15.2467 21.666 14.6203 22.3194 14.1397 23.0049C13.6605 23.6887 13.305 24.4343 13.2333 25.2235C13.2246 25.3195 13.1865 25.3934 13.1433 25.4381C13.1038 25.4792 13.0576 25.5 13 25.5C12.9424 25.5 12.8962 25.4792 12.8567 25.4381C12.8135 25.3934 12.7754 25.3195 12.7667 25.2235C12.695 24.4343 12.3395 23.6887 11.8603 23.0049C11.3797 22.3194 10.7533 21.666 10.0964 21.0579C9.46887 20.4769 8.79869 19.9238 8.18362 19.4162C8.15422 19.3919 8.12496 19.3678 8.09583 19.3437C7.44932 18.81 6.87878 18.3354 6.45796 17.9143Z" fill="#333333" stroke="#555555"/>
<path d="M13.0004 14.7876C14.8851 14.7876 16.4129 13.2598 16.4129 11.3751C16.4129 9.49047 14.8851 7.96265 13.0004 7.96265C11.1157 7.96265 9.58789 9.49047 9.58789 11.3751C9.58789 13.2598 11.1157 14.7876 13.0004 14.7876Z" fill="#6B52AE"/>
</svg>
